<svg width="38" height="34" viewBox="0 0 38 34" fill="none" xmlns="http://www.w3.org/2000/svg">
<path d="M2.84395 9.0899C1.35694 9.58557 1.39824 23.3404 1.60477 30.1559C3.46348 32.6342 30.1059 32.6343 33.8234 32.0147C37.5409 31.3951 36.3017 14.0466 36.3017 10.3291C36.3017 6.6116 28.8667 7.85073 25.7687 7.85077C22.6708 7.85082 25.7687 4.75283 25.7687 2.89407C25.7687 1.03531 12.7574 1.03531 12.1378 2.89407C11.5182 4.75283 12.1378 6.6116 10.8986 7.85077C9.65947 9.08995 4.70271 8.47032 2.84395 9.0899Z" stroke="black" stroke-width="3"/>
<path d="M17.7141 13.5366C13.377 14.156 13.377 17.8736 13.377 20.352C13.2569 21.5911 12.6548 24.6891 20.1924 24.6891C23.91 24.6891 25.1492 19.7325 25.1492 17.2541C25.1492 14.7758 21.5934 12.9825 17.7141 13.5366Z" stroke="black" stroke-width="3"/>
</svg>
