<svg width="31" height="32" viewBox="0 0 31 32" fill="none" xmlns="http://www.w3.org/2000/svg">
<path d="M7.03465 3.8348C2.53465 7.8348 1.03465 12.3348 1.03465 15.3348C0.534648 21.3349 5.53465 27.3347 11.5346 29.8347C17.5346 32.3347 26.5346 25.3347 28.5346 22.3347C30.5346 19.3347 30.5346 10.8348 26.5346 5.3348C22.5346 -0.165203 11.5346 -0.165203 7.03465 3.8348Z" stroke="black" stroke-width="2" stroke-linecap="round"/>
<path d="M19.4115 10.1476C16.3664 7.81082 9.66697 8.97922 9.05793 14.237C8.4489 20.6633 13.4394 23.6057 18.5001 21.5C23.3068 19.5 22.4567 12.4844 19.4115 10.1476Z" stroke="black" stroke-width="2" stroke-linecap="round"/>
<path d="M20.0347 10.3347C20.4513 7.83472 24.2013 7.00138 25.0347 5.33472" stroke="black" stroke-width="2" stroke-linecap="round"/>
<path d="M15.5347 1.83472C15.368 3.33472 15.1347 6.73472 15.5347 8.33472" stroke="black" stroke-width="2" stroke-linecap="round"/>
<path d="M29.5347 14C27.4758 14 23.3582 14 22.5347 15" stroke="black" stroke-width="2" stroke-linecap="round"/>
<path d="M21.0347 21.3347C22.5347 22.3347 23.2847 25.0014 24.0347 25.3347" stroke="black" stroke-width="2" stroke-linecap="round"/>
<path d="M10.0347 10.2063C8.78467 8.59147 6.03467 5.5556 5.03467 6.33071" stroke="black" stroke-width="2" stroke-linecap="round"/>
<path d="M8.53467 14.8347C6.493 15.3347 2.23467 16.4347 1.53467 16.8347" stroke="black" stroke-width="2" stroke-linecap="round"/>
<path d="M10.5347 19.8347C10.171 21.0347 7.04982 23.6681 5.53467 24.8347" stroke="black" stroke-width="2" stroke-linecap="round"/>
<path d="M15.5347 22.3347C15.5347 24.3347 15.0347 28.8347 15.5347 29.8347" stroke="black" stroke-width="2" stroke-linecap="round"/>
</svg>
