<svg width="38" height="37" viewBox="0 0 38 37" fill="none" xmlns="http://www.w3.org/2000/svg">
<path d="M6.44241 13.8783C0.50065 14.9028 0.500649 22.5859 1.49094 27.708C3.47156 33.8546 5.45209 34.3667 12.8793 35.3911C20.3065 36.4155 22.7822 24.6348 21.7919 19.0005C20.8016 13.3661 12.3842 12.8539 6.44241 13.8783Z" stroke="black" stroke-width="2" stroke-linecap="round"/>
<path d="M11 17.9537C7.5 13.9537 7 4.45374 14.5 1.95374C22 -0.546258 26.5 1.95374 28.5 8.45374C30.5 14.9537 27.5 22.4539 21.5 22.4539C15.5 22.4539 11.2332 19.2341 11 18.4539" stroke="black" stroke-width="2" stroke-linecap="round"/>
<path d="M36.4445 26.6295C33.9445 32.6296 26.9445 37.1296 16.4445 30.0833C13.4445 22.0832 15.4444 18.0832 19.4444 14.0832C23.4444 10.0832 40.1184 17.8118 36.4445 26.6295Z" stroke="black" stroke-width="2" stroke-linecap="round"/>
</svg>
