<svg width="35" height="35" viewBox="0 0 35 35" fill="none" xmlns="http://www.w3.org/2000/svg">
<path d="M33.5 12.5002C33.5 17.5 26 20.0001 26 21.5001C26.5 24.0001 28.0001 24.5002 29.5001 24.5002C31.0001 24.5002 32.1081 28.4354 29.5001 30.0001C27 31.5001 24.5001 31.5002 19.0001 31.5002C13.5001 31.5002 5.76489 27.0301 4.50004 24.5002C3.0001 21.5001 2.50003 15.5002 4.00004 12.5002C5.11808 10.2641 9.50004 5.50013 15 3.50013C20.5 1.50013 23.5 2.50013 27.5 4.00008C31.0654 5.33708 33.5 10.0002 33.5 12.5002Z" stroke="black" stroke-width="3" stroke-linecap="round"/>
<path d="M15.8637 22.499C14.691 19.089 10.0152 19.0497 10 23.1187C9.99107 25.5336 11.3545 25.6144 12.3455 25.909C14.0727 26.4224 16.6182 24.693 15.8637 22.499Z" stroke="black" stroke-width="3" stroke-linecap="round"/>
<path d="M11.8284 12.5734C9.32138 10.8823 7.23273 13.2168 8.27372 15.8676C8.72855 17.0258 10.5154 17.7236 12.485 15.7923C13.5229 14.7745 12.8314 13.2499 11.8284 12.5734Z" stroke="black" stroke-width="3" stroke-linecap="round"/>
<path d="M19.3683 7.79783C18.2204 6.58347 15.3508 6.58315 14.7768 9.01195C14.5084 10.1476 17.0725 13.2624 18.7943 11.4408C19.7017 10.4809 20.1207 8.59391 19.3683 7.79783Z" stroke="black" stroke-width="3" stroke-linecap="round"/>
<path d="M29 11.1728C29 8.54943 25.6729 8.31381 24.3423 10.3991C23.173 12.2314 25.2901 14.0785 26.3385 13.9974C27.6025 13.8997 29 12.6068 29 11.1728Z" stroke="black" stroke-width="3" stroke-linecap="round"/>
</svg>
