<svg width="37" height="38" viewBox="0 0 37 38" fill="none" xmlns="http://www.w3.org/2000/svg">
<path d="M1.19644 36.5535C0.280753 36.0956 2.76875 29.649 4.48556 27.3598C6.77488 25.0706 20.6548 8.51057 22.944 7.36596C25.2333 6.22135 28.6671 13.089 28.6671 14.2336C28.6671 15.3782 10.7809 34.2275 9.6363 34.2275C8.49169 34.2275 2.34105 37.1258 1.19644 36.5535Z" stroke="black" stroke-width="2"/>
<path d="M30.3841 11.9441C30.3841 10.7995 28.0949 6.79341 25.8057 5.0765C25.8057 3.35958 27.9501 1.60619 29.0947 1.03388C30.2393 0.461576 35.3901 7.32916 35.9624 7.32916C36.5347 7.32916 30.3841 13.0888 30.3841 11.9441Z" stroke="black" stroke-width="2"/>
</svg>
