<svg width="39" height="38" viewBox="0 0 39 38" fill="none" xmlns="http://www.w3.org/2000/svg">
<path d="M7.55363 12.7156C6.40448 14.5584 5.22905 16.3143 3.94453 17.7156C-1.55547 23.7156 1.44452 24.2156 6.44452 30.7156C7.61121 32.2156 10.9446 35.4156 14.9446 36.2156C16.9755 36.6218 20.409 34.1406 23.9379 30.7156M7.55363 12.7156C11.3248 6.66775 14.813 -0.317321 20.9446 1.21558C28.9446 3.21558 38.4446 10.7156 35.9446 15.7156C34.4601 18.6846 29.0969 25.7086 23.9379 30.7156M7.55363 12.7156C10.4446 17.7156 19.9313 30.7156 23.9379 30.7156" stroke="black" stroke-width="2" stroke-linecap="round"/>
<path d="M12 11.5012C13.1667 16.0012 15.5 24.2012 15.5 21.0012C15.5 17.0012 10.5 3.50122 13 7.50122C15.5 11.5012 17 23.5011 17.5 22.0011C18 20.5011 16.5 0.500986 17.5 6.0011C18.5 11.5012 21.5 29.0012 21.5 26.0012C21.5 23.0012 18 2.00098 20.5 6.0011C23 10.0012 25 31.0012 25 25.0012C25 19.0012 23.5 5.50122 25 7.50122C26.5 9.50122 28 23.0012 28.5 19.5012C29 16.0012 30 8.50122 30.5 10.0012C30.9 11.2012 32.6667 12.8346 33.5 13.5012" stroke="black" stroke-width="2" stroke-linecap="round"/>
<path d="M5 37.0012H38" stroke="black" stroke-width="2" stroke-linecap="round"/>
</svg>
