<svg width="39" height="39" viewBox="0 0 39 39" fill="none" xmlns="http://www.w3.org/2000/svg">
<path d="M8.05363 13.2163C6.90448 15.0592 5.72905 16.815 4.44453 18.2163C-1.05547 24.2163 1.94452 24.7163 6.94452 31.2163C8.11121 32.7163 11.4446 35.9163 15.4446 36.7163C17.4755 37.1225 20.909 34.6413 24.4379 31.2163M8.05363 13.2163C11.8248 7.16848 15.313 0.183411 21.4446 1.71631C29.4446 3.71631 38.9446 11.2163 36.4446 16.2163C34.9601 19.1853 29.5969 26.2094 24.4379 31.2163M8.05363 13.2163C10.9446 18.2163 20.4313 31.2163 24.4379 31.2163" stroke="black" stroke-width="3" stroke-linecap="round"/>
<path d="M12.5 12.002C13.6667 16.502 16 24.702 16 21.502C16 17.502 11 4.00195 13.5 8.00195C16 12.002 17.5 24.0018 18 22.5018C18.5 21.0018 17 1.00172 18 6.50183C19 12.002 22 29.502 22 26.502C22 23.502 18.5 2.50172 21 6.50183C23.5 10.502 25.5 31.502 25.5 25.502C25.5 19.502 24 6.00195 25.5 8.00195C27 10.002 28.5 23.502 29 20.002C29.5 16.502 30.5 9.00195 31 10.502C31.4 11.702 33.1667 13.3353 34 14.002" stroke="black" stroke-width="3" stroke-linecap="round"/>
</svg>
