<svg width="51" height="60" viewBox="0 0 51 60" fill="none" xmlns="http://www.w3.org/2000/svg">
<path d="M10.6917 6.63132C1.06991 13.4261 -2.9137 31.4988 5.88981 45.4867C16.1605 61.806 26.6093 60.0603 37.8134 56.9518C49.0175 53.8434 53.1073 42.3783 47.5052 18.288C41.9031 -5.80241 19.4949 0.414576 10.6917 6.63132Z" stroke="black" stroke-width="2" stroke-linecap="round"/>
<path d="M21.9999 22.7417C21.9999 16.0184 11.9999 17.0152 11.9999 22.1692C11.9999 26.1778 12.9999 29 17.0003 29C19.678 29 21.9999 26.3203 21.9999 22.7417Z" stroke="black" stroke-width="2" stroke-linecap="round"/>
<path d="M39.6568 18.2615C34.6427 14.5412 30.4654 19.677 32.5474 25.5088C33.457 28.0568 37.0307 29.5918 40.9698 25.343C43.0456 23.1039 41.6626 19.7498 39.6568 18.2615Z" stroke="black" stroke-width="2" stroke-linecap="round"/>
<path d="M22.0528 45.1845C22.8095 42.7048 25.8364 39.3985 30.3768 41.8782C34.9172 44.3579 34.9172 50.9705 31.8903 51.797C28.8634 52.6236 21.296 50.9705 22.0528 46.0111" stroke="black" stroke-width="2" stroke-linecap="round"/>
<path d="M22.0281 36.2314C21.7011 35.2752 24.3084 31.3281 25.057 28.999C26.112 25.7166 25.6997 24.1333 27.5431 25.4809C30.6945 27.7847 33.8459 37 30.6945 37C28.331 37 26.7553 37 22.0282 37" stroke="black" stroke-width="2" stroke-linecap="round"/>
</svg>
