<svg width="38" height="39" viewBox="0 0 38 39" fill="none" xmlns="http://www.w3.org/2000/svg">
<path d="M2.27433 20.9606C1.19887 20.9606 1.55736 22.46 1.55736 23.5846C1.67684 26.5834 1.91581 33.1808 1.91581 35.5799C1.91581 38.5787 13.7458 35.9548 14.8212 35.5799C15.8967 35.205 15.5382 23.9594 14.8212 22.0852C14.1043 20.2109 3.34978 20.9606 2.27433 20.9606Z" stroke="black" stroke-width="3" stroke-linecap="round"/>
<path d="M16.7859 2.3125C14.9027 2.3125 8.5 14.2254 8.5 16.3913C9.62989 17.8353 24.3185 17.4743 25.825 16.3913C27.3315 15.3084 18.669 2.3125 16.7859 2.3125Z" stroke="black" stroke-width="3" stroke-linecap="round"/>
<path d="M27.943 19.753C21.8947 18.9288 20.1666 23.4622 20.1666 29.644C20.1666 34.5895 23.6228 35.4138 27.943 35.8259C32.2632 36.238 37.9741 29.4124 36.1514 25.9349C33.5593 20.9894 33.9913 20.5773 27.943 19.753Z" stroke="black" stroke-width="3" stroke-linecap="round"/>
</svg>
