<svg width="30" height="34" viewBox="0 0 30 34" fill="none" xmlns="http://www.w3.org/2000/svg">
<path d="M6.84025 4.50985C1.53847 8.14153 -0.656585 17.8011 4.19433 25.2774C9.85371 33.9998 15.6112 33.0667 21.7849 31.4053C27.9586 29.7439 30.2121 23.616 27.1253 10.7401C24.0384 -2.13577 11.691 1.1871 6.84025 4.50985Z" stroke="black" stroke-width="3" stroke-linecap="round"/>
<path d="M12.0101 13.0344C12.0101 9.44086 6.49988 9.97363 6.49988 12.7284C6.49988 14.8709 7.05091 16.3793 9.25521 16.3793C10.7307 16.3793 12.0101 14.9471 12.0101 13.0344Z" stroke="black" stroke-width="3" stroke-linecap="round"/>
<path d="M23.719 10.1743C20.9561 8.1858 18.6543 10.9308 19.8016 14.0478C20.3028 15.4097 22.272 16.2301 24.4425 13.9592C25.5863 12.7624 24.8242 10.9697 23.719 10.1743Z" stroke="black" stroke-width="3" stroke-linecap="round"/>
<path d="M12.529 25.7365C12.946 24.4112 14.6139 22.644 17.1157 23.9694C19.6176 25.2948 19.6176 28.829 17.9497 29.2708C16.2818 29.7126 12.112 28.829 12.529 26.1783" stroke="black" stroke-width="3" stroke-linecap="round"/>
<path d="M12.5154 19.503C12.3352 18.9919 13.7719 16.8823 14.1844 15.6374C14.7658 13.883 14.5386 13.0368 15.5543 13.757C17.2908 14.9884 19.0273 19.9138 17.2908 19.9138C15.9884 19.9138 15.1202 19.9138 12.5155 19.9138" stroke="black" stroke-width="3" stroke-linecap="round"/>
</svg>
