<svg width="23" height="24" viewBox="0 0 23 24" fill="none" xmlns="http://www.w3.org/2000/svg">
<path d="M4.74207 22.1417C3.66879 23.5728 10.2421 19.6416 11.7421 17.1416C12.5139 15.8554 17.7421 19.1415 20.2421 20.6416C24.5295 23.2142 15.7421 14.6417 15.2421 13.6417C14.7421 12.6417 19.6815 9.20238 20.7421 8.14172C22.2421 6.6416 14.2421 9.64165 13.2421 10.1417C12.4421 10.5417 11.0416 -0.355746 10.7421 1.14165C10.2421 3.6416 9.24209 7.74171 9.24209 10.1417C9.24209 13.1416 5.59712 10.5383 2.24207 8.14172C-1.2579 5.6416 3.24194 10.1417 8.2421 15.1416C9.03269 15.9322 6.24209 20.1416 4.74207 22.1417Z" stroke="black" stroke-width="2" stroke-linecap="round"/>
</svg>
