<svg width="292" height="387" viewBox="0 0 292 387" fill="none" xmlns="http://www.w3.org/2000/svg">
<path d="M18.2154 13.5105C106.004 2.26113 266.005 -3.23079 271.5 8.70806C272.742 11.4051 275.203 31.2538 277.913 60.3876C287.2 160.217 299.405 369.069 275.431 370.455C244.459 372.246 6.17819 396.124 6.17819 377.022V253.01C6.17817 207.01 -3.22244 126.086 6.17818 69.5105C11.7687 35.8651 -8.49995 16.9339 18.2154 13.5105Z" fill="white"/>
<path d="M6.17818 69.5105C-3.22244 126.086 6.17817 207.01 6.17819 253.01C6.1782 299.01 6.17819 357.919 6.17819 377.022C6.17819 396.124 244.459 372.246 275.431 370.455C299.405 369.069 287.2 160.217 277.913 60.3876M6.17818 69.5105C11.7687 35.8651 -8.49995 16.9339 18.2154 13.5105C106.004 2.26113 266.005 -3.23079 271.5 8.70806C272.742 11.4051 275.203 31.2538 277.913 60.3876M6.17818 69.5105L277.913 60.3876" stroke="black" stroke-width="4"/>
</svg>
