<svg width="29" height="39" viewBox="0 0 29 39" fill="none" xmlns="http://www.w3.org/2000/svg">
<path d="M1.50024 8.07727C8.00024 6.91061 22.2002 5.27727 27.0002 8.07727" stroke="black" stroke-width="3" stroke-linecap="round"/>
<path d="M9.00017 6.57746C7.50019 -0.922433 15.0002 0.57756 18.0002 6.5775M9.00017 16.0774C8.50017 19.7441 8.00017 27.7774 10.0002 30.5774M4.50022 12.9995C16.5002 8.99951 24.5003 13.4995 25.0003 12.9995C25.5003 12.4995 25.0002 36.0774 19.5002 36.0774C14.0002 36.0774 7.50024 41.9995 4.50024 29.4995C2.10024 19.4995 4.00022 14.6661 4.50022 12.9995Z" stroke="black" stroke-width="3" stroke-linecap="round"/>
<path d="M14.0002 29.0774C13.2002 23.4774 13.3335 19.0774 13.5002 17.5774" stroke="black" stroke-width="3" stroke-linecap="round"/>
<path d="M19.0002 15.5774C20.5002 18.5774 19.0002 28.5774 19.0002 29.5774" stroke="black" stroke-width="3" stroke-linecap="round"/>
</svg>
