<svg width="28" height="38" viewBox="0 0 28 38" fill="none" xmlns="http://www.w3.org/2000/svg">
<path d="M1.00012 7.57752C7.50012 6.41085 21.7001 4.77752 26.5001 7.57752" stroke="black" stroke-width="2" stroke-linecap="round"/>
<path d="M8.50006 6.0777C7.00008 -1.42219 14.5001 0.0778046 17.5001 6.07774M8.50006 15.5776C8.00006 19.2443 7.50006 27.2776 9.50006 30.0776M4.50012 10.9998C16.5001 6.99976 24.0001 11.0778 24.5001 10.5778C25.0001 10.0778 24.5001 35.5776 19.0001 35.5776C13.5001 35.5776 8.50008 41.0776 5.50008 28.5776C3.10008 18.5776 4.00012 12.6664 4.50012 10.9998Z" stroke="black" stroke-width="2" stroke-linecap="round"/>
<path d="M13.5001 28.5776C12.7001 22.9776 12.8334 18.5776 13.0001 17.0776" stroke="black" stroke-width="2" stroke-linecap="round"/>
<path d="M18.5001 15.0776C20.0001 18.0776 18.5001 28.0776 18.5001 29.0776" stroke="black" stroke-width="2" stroke-linecap="round"/>
</svg>
